<?xml version="1.0" encoding="UTF-8"?> <svg xmlns="http://www.w3.org/2000/svg" width="147" height="344" viewBox="0 0 147 344" fill="none"><path fill-rule="evenodd" clip-rule="evenodd" d="M107.688 218.173C100.638 244.971 98.4683 274.988 77.9455 293.618C56.963 312.665 26.7801 316.377 -1.55891 317.345C-29.4607 318.297 -55.2476 309.356 -81.1955 299.049C-113.971 286.03 -153.265 279.664 -171.843 249.705C-191.403 218.161 -189.487 176.938 -178.977 141.362C-168.632 106.345 -147.886 71.1537 -114.627 56.0357C-83.3975 41.8404 -49.0767 66.1663 -14.7656 66.7187C15.9256 67.2129 47.6797 44.5889 74.7365 59.085C102.049 73.718 112.534 107.967 118.814 138.286C124.405 165.279 114.701 191.52 107.688 218.173Z" fill="#1F4645" fill-opacity="0.1"></path></svg> 