<?xml version="1.0" encoding="UTF-8"?> <svg xmlns="http://www.w3.org/2000/svg" width="163" height="295" viewBox="0 0 163 295" fill="none"><path fill-rule="evenodd" clip-rule="evenodd" d="M173.847 262.828C148.017 271.747 118.239 285.127 94.3793 271.804C70.5611 258.503 73.7768 223.337 60.4747 199.518C48.5154 178.104 25.2946 163.879 20.6555 139.794C15.2786 111.878 11.2624 75.7023 33.1269 57.5357C55.6931 38.786 89.6526 57.6334 118.988 58.0917C138.394 58.3949 157.149 54.2704 175.764 59.7644C195.746 65.6622 213.249 76.1915 228.481 90.4078C248.124 108.74 274.138 126.359 275.85 153.174C277.584 180.311 255.444 202.673 236.924 222.581C219.51 241.301 198.013 254.483 173.847 262.828Z" fill="#9E6B62" fill-opacity="0.2"></path></svg> 