<?xml version="1.0" encoding="UTF-8"?> <svg xmlns="http://www.w3.org/2000/svg" width="647" height="310" viewBox="0 0 647 310" fill="none"><path fill-rule="evenodd" clip-rule="evenodd" d="M632.78 140.678C569.443 180.077 488.532 163.268 414.782 152.103C344.28 141.429 272.006 126.542 219.652 78.134C167.677 30.077 142.564 -39.5323 131.849 -109.504C121.606 -176.401 131.324 -244.559 160.92 -305.422C189.787 -364.787 240.545 -407.11 294.83 -444.669C353.88 -485.526 414.787 -533.232 486.55 -530.726C560.321 -528.15 627.57 -484.874 678.33 -431.279C726.509 -380.41 748.48 -312.091 759.2 -242.851C769.413 -176.881 758.458 -112.086 737.56 -48.6856C714.409 21.5467 695.571 101.617 632.78 140.678Z" fill="#153D3C" fill-opacity="0.1"></path></svg> 