<?xml version="1.0" encoding="UTF-8"?> <svg xmlns="http://www.w3.org/2000/svg" width="391" height="544" viewBox="0 0 391 544" fill="none"><path fill-rule="evenodd" clip-rule="evenodd" d="M51.5296 26.3609C105.252 32.2739 157.675 29.5697 208.053 49.1467C274.024 74.7826 361.949 89.3368 385.435 156.116C408.854 222.703 353.233 291.325 313.822 349.878C282.857 395.883 232.67 419.696 186.929 451.039C142.803 481.276 103.407 516.584 51.5296 529.611C-13.3829 545.912 -91.2524 575.049 -144.284 534.211C-197.457 493.265 -176.748 408.985 -190.447 343.276C-202.225 286.78 -228.785 233.618 -218.799 176.778C-207.777 114.038 -187.851 42.6645 -132.197 11.697C-77.1613 -18.926 -11.0705 19.4708 51.5296 26.3609Z" fill="#9A6055" fill-opacity="0.1"></path></svg> 