<?xml version="1.0" encoding="UTF-8"?> <svg xmlns="http://www.w3.org/2000/svg" width="334" height="522" viewBox="0 0 334 522" fill="none"><path fill-rule="evenodd" clip-rule="evenodd" d="M278.223 39.4307C320.678 50.1247 363.747 56.384 398.909 82.4614C433.8 108.339 454.715 146.047 474.268 184.828C497.501 230.907 526.519 276.431 522.65 327.885C518.187 387.252 498.282 450.052 451.552 486.965C404.198 524.37 338.525 523.487 278.223 520.962C220.173 518.531 162.696 506.231 115.133 472.878C67.0115 439.132 31.0298 390.564 12.6727 334.745C-5.72944 278.79 -2.75283 219.119 13.0149 162.366C29.3744 103.482 47.9766 33.7471 103.441 8.03696C158.489 -17.4798 219.384 24.6099 278.223 39.4307Z" fill="#9A6055" fill-opacity="0.1"></path></svg> 